<?xml version="1.0" encoding="UTF-8"?>
<svg width="16px" height="16px" viewBox="0 0 16 16" version="1.1" xmlns="http://www.w3.org/2000/svg" xmlns:xlink="http://www.w3.org/1999/xlink">
    <!-- Generator: Sketch 61.2 (89653) - https://sketch.com -->
    <title>logo-carsome</title>
    <desc>Created with Sketch.</desc>
    <g id="Page-1" stroke="none" stroke-width="1" fill="none" fill-rule="evenodd">
        <g id="logo-carsome" fill-rule="nonzero">
            <path d="M16,8 C16,12.418278 12.418278,16 8,16 C3.581722,16 0,12.418278 0,8 C0,3.581722 3.581722,0 8,0 C12.418278,0 16,3.581722 16,8" id="Path" fill="#FDCF33"></path>
            <path d="M11,2.53 C10.5935151,2.35484176 10.1717245,2.21759243 9.74,2.12 C9.31901368,2.03325672 8.88977331,1.99301543 8.46,2 C7.68737762,2.00703034 6.92338555,2.16322427 6.21,2.46 C4.78450629,3.02644468 3.63396309,4.12322418 3,5.52 C2.67352368,6.26695297 2.50989323,7.07487831 2.52,7.89 C2.51126601,8.75028214 2.67445853,9.60364304 3,10.4 C3.31498898,11.1061773 3.75929667,11.7472014 4.31,12.29 C4.84479558,12.8259159 5.48032904,13.2507377 6.18,13.54 C7.25236162,13.9698535 8.42602203,14.0809693 9.56,13.86 C9.98781641,13.7692689 10.4088262,13.6489804 10.82,13.5 L11.01,13.44 L11.01,10.44 C10.3661734,11.0723895 9.50241033,11.4307974 8.6,11.44 C8.15348649,11.4427244 7.71111849,11.3542508 7.3,11.18 C6.92278039,11.0077202 6.58302938,10.7630995 6.3,10.46 C5.99832293,10.1530376 5.76041432,9.78937729 5.6,9.39 C5.43279778,8.92493036 5.34819074,8.43420955 5.35,7.94 C5.34993457,7.48498073 5.4347169,7.03393872 5.6,6.61 C5.7631202,6.21737961 5.99700457,5.85807897 6.29,5.55 C6.59344028,5.25087464 6.94937721,5.01019348 7.34,4.84 C7.75836792,4.66653446 8.20709982,4.57814787 8.66,4.58 C9.56245482,4.57434652 10.428558,4.93522283 11.06,5.58 L11,2.53 Z" id="Path" fill="#1D1D1B"></path>
        </g>
    </g>
</svg>